<svg width="238" height="40" viewBox="0 0 238 40" fill="none" xmlns="http://www.w3.org/2000/svg">
<path d="M0 38.4385V27.8916C1.1556 29.389 2.51465 30.1377 4.07715 30.1377C6.16048 30.1377 7.20215 28.5752 7.20215 25.4502V1.30469H17.3828V27.4766C17.3828 29.7064 17.1875 31.4886 16.7969 32.8232C16.4388 34.1416 15.7796 35.3542 14.8193 36.4609C12.9639 38.5931 10.2376 39.6592 6.64062 39.6592C4.73633 39.6592 2.52279 39.2523 0 38.4385ZM38.0371 1.30469H48.2178V27.9648C48.2178 30.1947 47.8678 32.0013 47.168 33.3848C46.4844 34.8333 45.3451 36.1436 43.75 37.3154C41.6016 38.8779 38.9893 39.6592 35.9131 39.6592C32.43 39.6592 29.5085 38.7965 27.1484 37.0713C24.1536 34.874 22.6562 31.3584 22.6562 26.5244V1.30469H32.8369V25.6211C32.8369 27.265 33.0322 28.4287 33.4229 29.1123C33.8298 29.7959 34.5052 30.1377 35.4492 30.1377C36.4258 30.1377 37.1012 29.8203 37.4756 29.1855C37.8499 28.5182 38.0371 27.3382 38.0371 25.6455V1.30469ZM52.71 38.0723V26.2314C54.7119 28.9658 56.8766 30.333 59.2041 30.333C60.083 30.333 60.7992 30.1051 61.3525 29.6494C61.9059 29.1774 62.1826 28.5915 62.1826 27.8916C62.1826 26.8825 61.5804 25.8978 60.376 24.9375L58.7158 23.6436C57.609 22.8135 56.665 21.9915 55.8838 21.1777C55.1025 20.3477 54.4678 19.5013 53.9795 18.6387C53.4912 17.7598 53.1331 16.8564 52.9053 15.9287C52.6774 15.001 52.5635 14.0244 52.5635 12.999C52.5635 11.2412 52.9704 9.40202 53.7842 7.48145C54.1911 6.58626 54.6631 5.77246 55.2002 5.04004C55.7373 4.29134 56.3558 3.63216 57.0557 3.0625C58.9762 1.4349 61.2956 0.621094 64.0137 0.621094C66.4388 0.621094 68.8802 1.264 71.3379 2.5498V14.0732C70.5078 12.7874 69.5638 11.7783 68.5059 11.0459C67.4479 10.2972 66.4062 9.92285 65.3809 9.92285C64.5996 9.92285 63.9567 10.1507 63.4521 10.6064C62.9313 11.0459 62.6709 11.5749 62.6709 12.1934C62.6709 13.2025 63.3626 14.2035 64.7461 15.1963L66.3574 16.3926C68.5059 17.9388 70.0439 19.5257 70.9717 21.1533C71.9157 22.7809 72.3877 24.6852 72.3877 26.8662C72.3877 30.5771 71.2565 33.637 68.9941 36.0459C66.7318 38.4548 63.8672 39.6592 60.4004 39.6592C58.0078 39.6592 55.4443 39.1302 52.71 38.0723ZM90.0146 39H79.834V10.3379H74.2188V1.30469H95.8496V10.3379H90.0146V39ZM113.525 39V1.30469H122.314C127.344 1.30469 131.258 2.6556 134.058 5.35742C137.736 8.88932 139.575 13.8291 139.575 20.1768C139.575 26.4268 138.021 31.2526 134.912 34.6543C132.259 37.5514 128.304 39 123.047 39H113.525ZM123.706 29.8936C127.352 29.7145 129.175 26.5732 129.175 20.4697C129.175 17.4587 128.711 15.0824 127.783 13.3408C126.855 11.583 125.602 10.7041 124.023 10.7041H123.706V29.8936ZM171.655 20.2744C171.655 26.0199 170.345 30.6911 167.725 34.2881C165.12 37.8688 161.727 39.6592 157.544 39.6592C153.833 39.6592 150.651 38.2839 147.998 35.5332C144.661 32.0501 142.993 26.8255 142.993 19.8594C142.993 13.1862 144.735 8.08366 148.218 4.55176C150.806 1.93132 153.874 0.621094 157.422 0.621094C161.768 0.621094 165.226 2.39518 167.798 5.94336C170.369 9.49154 171.655 14.2686 171.655 20.2744ZM161.084 20.3477C161.084 13.528 159.88 10.1182 157.471 10.1182C156.266 10.1182 155.306 11.0133 154.59 12.8037C153.89 14.4639 153.54 16.9053 153.54 20.1279C153.54 23.3018 153.866 25.7676 154.517 27.5254C155.184 29.2669 156.104 30.1377 157.275 30.1377C158.48 30.1377 159.408 29.2751 160.059 27.5498C160.742 25.8245 161.084 23.4238 161.084 20.3477ZM201.245 39H191.064V1.30469H201.245V39ZM219.702 39H209.521V10.3379H203.906V1.30469H225.537V10.3379H219.702V39ZM237.695 33.9707C237.695 35.5007 237.134 36.8109 236.011 37.9014C234.92 38.9919 233.586 39.5371 232.007 39.5371C230.444 39.5371 229.085 38.9837 227.93 37.877C226.807 36.7539 226.245 35.3949 226.245 33.7998C226.245 32.2373 226.799 30.9027 227.905 29.7959C229.012 28.6891 230.347 28.1357 231.909 28.1357C233.521 28.1357 234.888 28.7054 236.011 29.8447C237.134 30.9678 237.695 32.3431 237.695 33.9707Z" fill="white"/>
</svg>
