<svg width="307" height="100" viewBox="0 0 307 100" fill="none" xmlns="http://www.w3.org/2000/svg">
<mask id="path-1-outside-1_1_304" maskUnits="userSpaceOnUse" x="-2" y="-1" width="310" height="102" fill="black">
<rect fill="white" x="-2" y="-1" width="310" height="102"/>
<path d="M19.5312 39H9.35059V23.0332L0 1.30469H10.6201L12.4512 6.89551C12.8092 7.986 13.1266 9.03581 13.4033 10.0449C13.6963 11.054 13.9567 12.0225 14.1846 12.9502C14.5589 11.5667 14.8844 10.3786 15.1611 9.38574C15.4378 8.37663 15.682 7.56283 15.8936 6.94434L17.749 1.30469H28.2959L19.5312 23.0332V39ZM57.0557 20.2744C57.0557 26.0199 55.7454 30.6911 53.125 34.2881C50.5208 37.8688 47.1273 39.6592 42.9443 39.6592C39.2334 39.6592 36.0514 38.2839 33.3984 35.5332C30.0618 32.0501 28.3936 26.8255 28.3936 19.8594C28.3936 13.1862 30.1351 8.08366 33.6182 4.55176C36.2061 1.93132 39.2741 0.621094 42.8223 0.621094C47.168 0.621094 50.6266 2.39518 53.1982 5.94336C55.7699 9.49154 57.0557 14.2686 57.0557 20.2744ZM46.4844 20.3477C46.4844 13.528 45.2799 10.1182 42.8711 10.1182C41.6667 10.1182 40.7064 11.0133 39.9902 12.8037C39.2904 14.4639 38.9404 16.9053 38.9404 20.1279C38.9404 23.3018 39.266 25.7676 39.917 27.5254C40.5843 29.2669 41.5039 30.1377 42.6758 30.1377C43.8802 30.1377 44.8079 29.2751 45.459 27.5498C46.1426 25.8245 46.4844 23.4238 46.4844 20.3477ZM76.8066 1.30469H86.9873V27.9648C86.9873 30.1947 86.6374 32.0013 85.9375 33.3848C85.2539 34.8333 84.1146 36.1436 82.5195 37.3154C80.3711 38.8779 77.7588 39.6592 74.6826 39.6592C71.1995 39.6592 68.278 38.7965 65.918 37.0713C62.9232 34.874 61.4258 31.3584 61.4258 26.5244V1.30469H71.6064V25.6211C71.6064 27.265 71.8018 28.4287 72.1924 29.1123C72.5993 29.7959 73.2747 30.1377 74.2188 30.1377C75.1953 30.1377 75.8708 29.8203 76.2451 29.1855C76.6195 28.5182 76.8066 27.3382 76.8066 25.6455V1.30469ZM132.544 39H122.363V23.8389H117.505V39H107.324V1.30469H117.505V14.6348H122.363V1.30469H132.544V39ZM164.99 39H154.468L153.711 34.2148H146.851L146.021 39H135.498L144.556 1.30469H157.007L164.99 39ZM152.515 26.1338L151.855 21.7393C151.839 21.723 151.807 21.5033 151.758 21.0801C151.725 20.722 151.554 19.306 151.245 16.832C151.213 16.5553 151.172 16.181 151.123 15.709C151.074 15.2207 151.009 14.6104 150.928 13.8779L150.61 10.3135C150.578 10.6553 150.529 11.0378 150.464 11.4609C150.415 11.8841 150.358 12.348 150.293 12.8525C150.179 13.8617 150.098 14.5615 150.049 14.9521C150 15.3428 149.967 15.5788 149.951 15.6602L149.243 20.2256L148.218 26.1338H152.515ZM184.351 39H173.975L165.332 1.30469H176.025L177.881 12.0713C178.581 16.1891 179.142 20.7952 179.565 25.8896C179.744 23.6273 179.964 21.5114 180.225 19.542C180.485 17.5726 180.794 15.652 181.152 13.7803L183.569 1.30469H194.629L184.351 39ZM197.266 39V1.30469H216.187V10.167H207.446V15.6602H215.283V24.1807H207.446V29.9424H216.187V39H197.266ZM248.755 39H238.574V10.3379H232.959V1.30469H254.59V10.3379H248.755V39ZM282.446 39H272.266V23.8389H267.407V39H257.227V1.30469H267.407V14.6348H272.266V1.30469H282.446V39ZM287.744 39V1.30469H306.665V10.167H297.925V15.6602H305.762V24.1807H297.925V29.9424H306.665V39H287.744ZM12.8174 99H2.63672V61.3047H12.5C17.4154 61.3047 21.0612 62.3057 23.4375 64.3076C26.237 66.6676 27.6367 69.9473 27.6367 74.1465C27.6367 78.7201 26.1475 82.1299 23.1689 84.376C21.1344 85.8896 18.2129 86.6465 14.4043 86.6465H12.8174V99ZM12.8174 78.1748L13.2812 78.1992C14.5182 78.1992 15.5029 77.8249 16.2354 77.0762C16.9678 76.3112 17.334 75.2695 17.334 73.9512C17.334 72.6491 16.9759 71.5911 16.2598 70.7773C15.5436 69.9473 14.6322 69.5322 13.5254 69.5322H12.8174V78.1748ZM58.9111 80.2744C58.9111 86.0199 57.6009 90.6911 54.9805 94.2881C52.3763 97.8688 48.9827 99.6592 44.7998 99.6592C41.0889 99.6592 37.9069 98.2839 35.2539 95.5332C31.9173 92.0501 30.249 86.8255 30.249 79.8594C30.249 73.1862 31.9906 68.0837 35.4736 64.5518C38.0615 61.9313 41.1296 60.6211 44.6777 60.6211C49.0234 60.6211 52.4821 62.3952 55.0537 65.9434C57.6253 69.4915 58.9111 74.2686 58.9111 80.2744ZM48.3398 80.3477C48.3398 73.528 47.1354 70.1182 44.7266 70.1182C43.5221 70.1182 42.5618 71.0133 41.8457 72.8037C41.1458 74.4639 40.7959 76.9053 40.7959 80.1279C40.7959 83.3018 41.1214 85.7676 41.7725 87.5254C42.4398 89.2669 43.3594 90.1377 44.5312 90.1377C45.7357 90.1377 46.6634 89.2751 47.3145 87.5498C47.998 85.8245 48.3398 83.4238 48.3398 80.3477ZM95.1172 99H85.3027L82.959 85.792C82.5033 83.2367 82.1615 81.0231 81.9336 79.1514C81.8197 78.2236 81.722 77.4505 81.6406 76.832C81.5592 76.2135 81.5023 75.7415 81.4697 75.416C81.3883 76.0833 81.2663 77.3285 81.1035 79.1514C81.0221 80.0791 80.9245 81.0557 80.8105 82.0811C80.6966 83.1064 80.5583 84.1888 80.3955 85.3281L78.4668 99H68.5547L60.1562 61.3047H70.2148L71.875 71.6807C72.5098 75.8148 72.9492 79.0618 73.1934 81.4219L73.5352 84.8643L73.8525 81.9102C74.1943 78.4596 74.6338 75.18 75.1709 72.0713L77.0752 61.3047H85.8398L87.5488 70.3623C88.3626 74.5778 89.0706 79.5664 89.6729 85.3281C89.8519 82.7402 90.0472 80.4453 90.2588 78.4434C90.4704 76.4414 90.7064 74.6266 90.9668 72.999L92.8223 61.3047H102.759L95.1172 99ZM105.42 99V61.3047H124.341V70.167H115.601V75.6602H123.438V84.1807H115.601V89.9424H124.341V99H105.42ZM155.518 99H144.507L139.478 85.5723C139.429 85.3444 139.339 85.0433 139.209 84.6689C139.095 84.2946 138.949 83.847 138.77 83.3262L138.843 85.8164V99H128.711V61.3047H139.136C143.726 61.3047 147.16 62.208 149.438 64.0146C152.336 66.3258 153.784 69.6136 153.784 73.8779C153.784 78.4352 151.839 81.5846 147.949 83.3262L155.518 99ZM138.892 78.7607H139.575C140.747 78.7607 141.724 78.3132 142.505 77.418C143.286 76.5228 143.677 75.3835 143.677 74C143.677 71.1842 142.204 69.7764 139.258 69.7764H138.892V78.7607ZM187.085 99H176.904V70.3379H171.289V61.3047H192.92V70.3379H187.085V99ZM223.511 80.2744C223.511 86.0199 222.201 90.6911 219.58 94.2881C216.976 97.8688 213.582 99.6592 209.399 99.6592C205.688 99.6592 202.507 98.2839 199.854 95.5332C196.517 92.0501 194.849 86.8255 194.849 79.8594C194.849 73.1862 196.59 68.0837 200.073 64.5518C202.661 61.9313 205.729 60.6211 209.277 60.6211C213.623 60.6211 217.082 62.3952 219.653 65.9434C222.225 69.4915 223.511 74.2686 223.511 80.2744ZM212.939 80.3477C212.939 73.528 211.735 70.1182 209.326 70.1182C208.122 70.1182 207.161 71.0133 206.445 72.8037C205.745 74.4639 205.396 76.9053 205.396 80.1279C205.396 83.3018 205.721 85.7676 206.372 87.5254C207.039 89.2669 207.959 90.1377 209.131 90.1377C210.335 90.1377 211.263 89.2751 211.914 87.5498C212.598 85.8245 212.939 83.4238 212.939 80.3477Z"/>
</mask>
<path d="M19.5312 39V40H20.5312V39H19.5312ZM9.35059 39H8.35059V40H9.35059V39ZM9.35059 23.0332H10.3506V22.8272L10.2691 22.6379L9.35059 23.0332ZM0 1.30469V0.304688H-1.519L-0.918557 1.69998L0 1.30469ZM10.6201 1.30469L11.5704 0.993444L11.3449 0.304688H10.6201V1.30469ZM12.4512 6.89551L11.5008 7.20675L11.5011 7.20748L12.4512 6.89551ZM13.4033 10.0449L12.4389 10.3094L12.4409 10.3166L12.443 10.3237L13.4033 10.0449ZM14.1846 12.9502L13.2134 13.1887L15.1499 13.2114L14.1846 12.9502ZM15.1611 9.38574L16.1244 9.6542L16.1255 9.65018L15.1611 9.38574ZM15.8936 6.94434L16.8398 7.26805L16.8435 7.25686L15.8936 6.94434ZM17.749 1.30469V0.304688H17.0253L16.7991 0.992163L17.749 1.30469ZM28.2959 1.30469L29.2233 1.67877L29.7776 0.304688H28.2959V1.30469ZM19.5312 23.0332L18.6039 22.6591L18.5312 22.8391V23.0332H19.5312ZM19.5312 38H9.35059V40H19.5312V38ZM10.3506 39V23.0332H8.35059V39H10.3506ZM10.2691 22.6379L0.918557 0.909398L-0.918557 1.69998L8.43203 23.4285L10.2691 22.6379ZM0 2.30469H10.6201V0.304688H0V2.30469ZM9.66979 1.61593L11.5008 7.20675L13.4015 6.58426L11.5704 0.993444L9.66979 1.61593ZM11.5011 7.20748C11.8545 8.28374 12.167 9.31764 12.4389 10.3094L14.3677 9.78049C14.0863 8.75397 13.764 7.68827 13.4013 6.58354L11.5011 7.20748ZM12.443 10.3237C12.7324 11.3208 12.9892 12.2757 13.2134 13.1887L15.1557 12.7117C14.9242 11.7692 14.6601 10.7873 14.3637 9.76611L12.443 10.3237ZM15.1499 13.2114C15.5238 11.8295 15.8486 10.6439 16.1244 9.6542L14.1978 9.11728C13.9203 10.1133 13.5941 11.304 13.2193 12.689L15.1499 13.2114ZM16.1255 9.65018C16.3996 8.65072 16.6376 7.85896 16.8397 7.26802L14.9474 6.62065C14.7264 7.26669 14.4761 8.10254 14.1967 9.12131L16.1255 9.65018ZM16.8435 7.25686L18.6989 1.61721L16.7991 0.992163L14.9436 6.63181L16.8435 7.25686ZM17.749 2.30469H28.2959V0.304688H17.749V2.30469ZM27.3685 0.930604L18.6039 22.6591L20.4586 23.4073L29.2233 1.67877L27.3685 0.930604ZM18.5312 23.0332V39H20.5312V23.0332H18.5312ZM53.125 34.2881L52.3167 33.6993L52.3163 33.6999L53.125 34.2881ZM33.3984 35.5332L32.6763 36.225L32.6787 36.2274L33.3984 35.5332ZM33.6182 4.55176L32.9067 3.84908L32.9062 3.84959L33.6182 4.55176ZM53.1982 5.94336L54.0079 5.35651L53.1982 5.94336ZM39.9902 12.8037L40.9117 13.1922L40.9153 13.1837L40.9187 13.1751L39.9902 12.8037ZM39.917 27.5254L38.9792 27.8727L38.9832 27.8832L39.917 27.5254ZM45.459 27.5498L44.5293 27.1814L44.5263 27.1891L44.5234 27.1967L45.459 27.5498ZM56.0557 20.2744C56.0557 25.8699 54.7806 30.3172 52.3167 33.6993L53.9333 34.8769C56.7103 31.065 58.0557 26.1698 58.0557 20.2744H56.0557ZM52.3163 33.6999C49.8874 37.0396 46.786 38.6592 42.9443 38.6592V40.6592C47.4686 40.6592 51.1543 38.698 53.9337 34.8763L52.3163 33.6999ZM42.9443 38.6592C39.5139 38.6592 36.5891 37.4008 34.1182 34.839L32.6787 36.2274C35.5138 39.1669 38.9529 40.6592 42.9443 40.6592V38.6592ZM34.1206 34.8414C31.0281 31.6132 29.3936 26.6819 29.3936 19.8594H27.3936C27.3936 26.9692 29.0956 32.487 32.6763 36.225L34.1206 34.8414ZM29.3936 19.8594C29.3936 13.3558 31.0881 8.54141 34.3302 5.25393L32.9062 3.84959C29.182 7.62591 27.3936 13.0166 27.3936 19.8594H29.3936ZM34.3297 5.25443C36.7377 2.81615 39.5526 1.62109 42.8223 1.62109V-0.378906C38.9956 -0.378906 35.6744 1.04648 32.9067 3.84908L34.3297 5.25443ZM42.8223 1.62109C46.8443 1.62109 50.0031 3.23896 52.3885 6.5302L54.0079 5.35651C51.2501 1.5514 47.4917 -0.378906 42.8223 -0.378906V1.62109ZM52.3885 6.5302C54.7981 9.85474 56.0557 14.4028 56.0557 20.2744H58.0557C58.0557 14.1343 56.7416 9.12833 54.0079 5.35651L52.3885 6.5302ZM47.4844 20.3477C47.4844 16.9064 47.184 14.2111 46.524 12.3425C46.1923 11.4035 45.7462 10.6039 45.1382 10.0302C44.5074 9.43491 43.7372 9.11816 42.8711 9.11816V11.1182C43.2094 11.1182 43.4931 11.2277 43.7656 11.4848C44.061 11.7636 44.3676 12.2427 44.6381 13.0086C45.1825 14.5498 45.4844 16.9693 45.4844 20.3477H47.4844ZM42.8711 9.11816C41.0375 9.11816 39.8267 10.5199 39.0618 12.4323L40.9187 13.1751C41.586 11.5068 42.2959 11.1182 42.8711 11.1182V9.11816ZM39.0688 12.4153C38.2912 14.2598 37.9404 16.8605 37.9404 20.1279H39.9404C39.9404 16.9501 40.2896 14.6679 40.9117 13.1922L39.0688 12.4153ZM37.9404 20.1279C37.9404 23.3499 38.2681 25.9527 38.9792 27.8727L40.8547 27.1781C40.2638 25.5824 39.9404 23.2537 39.9404 20.1279H37.9404ZM38.9832 27.8832C39.6988 29.7506 40.8672 31.1377 42.6758 31.1377V29.1377C42.1406 29.1377 41.4699 28.7832 40.8508 27.1676L38.9832 27.8832ZM42.6758 31.1377C44.5047 31.1377 45.6874 29.7769 46.3946 27.9029L44.5234 27.1967C43.9285 28.7732 43.2557 29.1377 42.6758 29.1377V31.1377ZM46.3887 27.9182C47.1394 26.0235 47.4844 23.478 47.4844 20.3477H45.4844C45.4844 23.3697 45.1458 25.6256 44.5293 27.1814L46.3887 27.9182ZM76.8066 1.30469V0.304688H75.8066V1.30469H76.8066ZM86.9873 1.30469H87.9873V0.304688H86.9873V1.30469ZM85.9375 33.3848L85.0452 32.9334L85.039 32.9456L85.0331 32.958L85.9375 33.3848ZM82.5195 37.3154L83.1077 38.1242L83.1116 38.1213L82.5195 37.3154ZM65.918 37.0713L65.3264 37.8776L65.3278 37.8786L65.918 37.0713ZM61.4258 1.30469V0.304688H60.4258V1.30469H61.4258ZM71.6064 1.30469H72.6064V0.304688H71.6064V1.30469ZM72.1924 29.1123L71.3241 29.6084L71.3285 29.6162L71.3331 29.6238L72.1924 29.1123ZM76.2451 29.1855L77.1065 29.6935L77.112 29.6842L77.1173 29.6748L76.2451 29.1855ZM76.8066 2.30469H86.9873V0.304688H76.8066V2.30469ZM85.9873 1.30469V27.9648H87.9873V1.30469H85.9873ZM85.9873 27.9648C85.9873 30.1018 85.6501 31.7375 85.0452 32.9334L86.8298 33.8362C87.6246 32.2651 87.9873 30.2875 87.9873 27.9648H85.9873ZM85.0331 32.958C84.4354 34.2247 83.4197 35.4132 81.9275 36.5095L83.1116 38.1213C84.8095 36.8739 86.0725 35.4419 86.8419 33.8115L85.0331 32.958ZM81.9314 36.5067C79.9798 37.926 77.582 38.6592 74.6826 38.6592V40.6592C77.9355 40.6592 80.7624 39.8299 83.1077 38.1242L81.9314 36.5067ZM74.6826 38.6592C71.37 38.6592 68.666 37.8415 66.5081 36.264L65.3278 37.8786C67.89 39.7516 71.0291 40.6592 74.6826 40.6592V38.6592ZM66.5095 36.265C63.8461 34.3108 62.4258 31.1454 62.4258 26.5244H60.4258C60.4258 31.5714 62.0003 35.4372 65.3264 37.8776L66.5095 36.265ZM62.4258 26.5244V1.30469H60.4258V26.5244H62.4258ZM61.4258 2.30469H71.6064V0.304688H61.4258V2.30469ZM70.6064 1.30469V25.6211H72.6064V1.30469H70.6064ZM70.6064 25.6211C70.6064 27.2879 70.7946 28.6818 71.3241 29.6084L73.0606 28.6162C72.8089 28.1756 72.6064 27.2421 72.6064 25.6211H70.6064ZM71.3331 29.6238C71.9567 30.6714 72.9997 31.1377 74.2188 31.1377V29.1377C73.5497 29.1377 73.2419 28.9203 73.0517 28.6008L71.3331 29.6238ZM74.2188 31.1377C75.4185 31.1377 76.4946 30.7312 77.1065 29.6935L75.3838 28.6776C75.247 28.9095 74.9722 29.1377 74.2188 29.1377V31.1377ZM77.1173 29.6748C77.6292 28.7623 77.8066 27.3488 77.8066 25.6455H75.8066C75.8066 27.3276 75.6098 28.2742 75.373 28.6963L77.1173 29.6748ZM77.8066 25.6455V1.30469H75.8066V25.6455H77.8066ZM132.544 39V40H133.544V39H132.544ZM122.363 39H121.363V40H122.363V39ZM122.363 23.8389H123.363V22.8389H122.363V23.8389ZM117.505 23.8389V22.8389H116.505V23.8389H117.505ZM117.505 39V40H118.505V39H117.505ZM107.324 39H106.324V40H107.324V39ZM107.324 1.30469V0.304688H106.324V1.30469H107.324ZM117.505 1.30469H118.505V0.304688H117.505V1.30469ZM117.505 14.6348H116.505V15.6348H117.505V14.6348ZM122.363 14.6348V15.6348H123.363V14.6348H122.363ZM122.363 1.30469V0.304688H121.363V1.30469H122.363ZM132.544 1.30469H133.544V0.304688H132.544V1.30469ZM132.544 38H122.363V40H132.544V38ZM123.363 39V23.8389H121.363V39H123.363ZM122.363 22.8389H117.505V24.8389H122.363V22.8389ZM116.505 23.8389V39H118.505V23.8389H116.505ZM117.505 38H107.324V40H117.505V38ZM108.324 39V1.30469H106.324V39H108.324ZM107.324 2.30469H117.505V0.304688H107.324V2.30469ZM116.505 1.30469V14.6348H118.505V1.30469H116.505ZM117.505 15.6348H122.363V13.6348H117.505V15.6348ZM123.363 14.6348V1.30469H121.363V14.6348H123.363ZM122.363 2.30469H132.544V0.304688H122.363V2.30469ZM131.544 1.30469V39H133.544V1.30469H131.544ZM164.99 39V40H166.224L165.969 38.7928L164.99 39ZM154.468 39L153.48 39.1562L153.614 40H154.468V39ZM153.711 34.2148L154.699 34.0586L154.565 33.2148H153.711V34.2148ZM146.851 34.2148V33.2148H146.009L145.865 34.0439L146.851 34.2148ZM146.021 39V40H146.862L147.006 39.1709L146.021 39ZM135.498 39L134.526 38.7664L134.229 40H135.498V39ZM144.556 1.30469V0.304688H143.767L143.583 1.07105L144.556 1.30469ZM157.007 1.30469L157.985 1.0975L157.817 0.304688H157.007V1.30469ZM152.515 26.1338V27.1338H153.676L153.504 25.9854L152.515 26.1338ZM151.855 21.7393L152.844 21.5909L152.796 21.2651L152.563 21.0322L151.855 21.7393ZM151.758 21.0801L150.762 21.1706L150.763 21.1827L150.764 21.1947L151.758 21.0801ZM151.245 16.832L150.252 16.9489L150.253 16.9561L151.245 16.832ZM151.123 15.709L150.128 15.8085L150.128 15.8119L151.123 15.709ZM150.928 13.8779L149.932 13.9666L149.933 13.9775L149.934 13.9884L150.928 13.8779ZM150.61 10.3135L151.606 10.2248L149.615 10.2187L150.61 10.3135ZM150.464 11.4609L149.475 11.3089L149.473 11.3275L149.47 11.3463L150.464 11.4609ZM150.293 12.8525L149.301 12.7246L149.3 12.7325L149.299 12.7403L150.293 12.8525ZM149.951 15.6602L148.971 15.464L148.966 15.4854L148.963 15.5069L149.951 15.6602ZM149.243 20.2256L150.228 20.3966L150.23 20.3877L150.231 20.3788L149.243 20.2256ZM148.218 26.1338L147.232 25.9628L147.029 27.1338H148.218V26.1338ZM164.99 38H154.468V40H164.99V38ZM155.455 38.8438L154.699 34.0586L152.723 34.3711L153.48 39.1562L155.455 38.8438ZM153.711 33.2148H146.851V35.2148H153.711V33.2148ZM145.865 34.0439L145.035 38.8291L147.006 39.1709L147.836 34.3858L145.865 34.0439ZM146.021 38H135.498V40H146.021V38ZM136.47 39.2336L145.528 1.53832L143.583 1.07105L134.526 38.7664L136.47 39.2336ZM144.556 2.30469H157.007V0.304688H144.556V2.30469ZM156.029 1.51188L164.012 39.2072L165.969 38.7928L157.985 1.0975L156.029 1.51188ZM153.504 25.9854L152.844 21.5909L150.867 21.8876L151.526 26.2821L153.504 25.9854ZM152.563 21.0322C152.604 21.0733 152.635 21.112 152.658 21.1427C152.681 21.1738 152.699 21.202 152.713 21.2249C152.739 21.2693 152.757 21.3074 152.768 21.3318C152.789 21.3796 152.801 21.4177 152.806 21.4336C152.811 21.4527 152.815 21.467 152.817 21.4737C152.818 21.481 152.819 21.4855 152.819 21.4863C152.82 21.4874 152.819 21.4824 152.816 21.4688C152.814 21.4559 152.811 21.4384 152.808 21.4157C152.794 21.3221 152.775 21.1741 152.751 20.9655L150.764 21.1947C150.789 21.4092 150.811 21.5827 150.83 21.7088C150.839 21.7697 150.849 21.834 150.861 21.8915C150.866 21.9181 150.876 21.9632 150.892 22.0136C150.899 22.038 150.913 22.0828 150.937 22.1358C150.949 22.163 151.01 22.308 151.148 22.4464L152.563 21.0322ZM152.754 20.9895C152.719 20.6098 152.545 19.1702 152.237 16.708L150.253 16.9561C150.564 19.4418 150.731 20.8342 150.762 21.1706L152.754 20.9895ZM152.238 16.7152C152.207 16.4452 152.166 16.0762 152.118 15.6061L150.128 15.8119C150.177 16.2858 150.219 16.6654 150.252 16.9489L152.238 16.7152ZM152.118 15.6095C152.069 15.1162 152.003 14.502 151.922 13.7675L149.934 13.9884C150.015 14.7188 150.08 15.3252 150.128 15.8085L152.118 15.6095ZM151.924 13.7892L151.606 10.2248L149.614 10.4022L149.932 13.9666L151.924 13.7892ZM149.615 10.2187C149.585 10.5373 149.538 10.9003 149.475 11.3089L151.452 11.613C151.52 11.1752 151.571 10.7732 151.606 10.4083L149.615 10.2187ZM149.47 11.3463C149.422 11.7643 149.366 12.2236 149.301 12.7246L151.285 12.9805C151.35 12.4723 151.408 12.0039 151.457 11.5756L149.47 11.3463ZM149.299 12.7403C149.185 13.7498 149.105 14.4441 149.057 14.8281L151.041 15.0762C151.091 14.6789 151.173 13.9735 151.287 12.9647L149.299 12.7403ZM149.057 14.8281C149.032 15.0215 149.013 15.1735 148.997 15.2855C148.989 15.3415 148.983 15.3853 148.978 15.4181C148.973 15.4539 148.97 15.4662 148.971 15.464L150.932 15.8563C150.957 15.73 150.994 15.4492 151.041 15.0762L149.057 14.8281ZM148.963 15.5069L148.255 20.0723L150.231 20.3788L150.939 15.8134L148.963 15.5069ZM148.258 20.0546L147.232 25.9628L149.203 26.3048L150.228 20.3966L148.258 20.0546ZM148.218 27.1338H152.515V25.1338H148.218V27.1338ZM184.351 39V40H185.114L185.315 39.2631L184.351 39ZM173.975 39L173 39.2235L173.178 40H173.975V39ZM165.332 1.30469V0.304688H164.077L164.357 1.52816L165.332 1.30469ZM176.025 1.30469L177.011 1.13486L176.868 0.304688H176.025V1.30469ZM177.881 12.0713L178.867 11.9037L178.866 11.9015L177.881 12.0713ZM179.565 25.8896L178.569 25.9724L180.562 25.9685L179.565 25.8896ZM181.152 13.7803L180.171 13.5901L180.17 13.5924L181.152 13.7803ZM183.569 1.30469V0.304688H182.744L182.588 1.11449L183.569 1.30469ZM194.629 1.30469L195.594 1.56775L195.938 0.304688H194.629V1.30469ZM184.351 38H173.975V40H184.351V38ZM174.949 38.7765L166.307 1.08121L164.357 1.52816L173 39.2235L174.949 38.7765ZM165.332 2.30469H176.025V0.304688H165.332V2.30469ZM175.04 1.47452L176.895 12.2411L178.866 11.9015L177.011 1.13486L175.04 1.47452ZM176.895 12.2388C177.589 16.3232 178.148 20.9004 178.569 25.9724L180.562 25.8069C180.137 20.6901 179.572 16.055 178.867 11.9037L176.895 12.2388ZM180.562 25.9685C180.74 23.7212 180.958 21.6229 181.216 19.6731L179.233 19.4109C178.97 21.3999 178.749 23.5333 178.569 25.8108L180.562 25.9685ZM181.216 19.6731C181.474 17.7219 181.78 15.8203 182.135 13.9682L180.17 13.5924C179.808 15.4837 179.496 17.4233 179.233 19.4109L181.216 19.6731ZM182.134 13.9705L184.551 1.49489L182.588 1.11449L180.171 13.5901L182.134 13.9705ZM183.569 2.30469H194.629V0.304688H183.569V2.30469ZM193.664 1.04162L183.386 38.7369L185.315 39.2631L195.594 1.56775L193.664 1.04162ZM197.266 39H196.266V40H197.266V39ZM197.266 1.30469V0.304688H196.266V1.30469H197.266ZM216.187 1.30469H217.187V0.304688H216.187V1.30469ZM216.187 10.167V11.167H217.187V10.167H216.187ZM207.446 10.167V9.16699H206.446V10.167H207.446ZM207.446 15.6602H206.446V16.6602H207.446V15.6602ZM215.283 15.6602H216.283V14.6602H215.283V15.6602ZM215.283 24.1807V25.1807H216.283V24.1807H215.283ZM207.446 24.1807V23.1807H206.446V24.1807H207.446ZM207.446 29.9424H206.446V30.9424H207.446V29.9424ZM216.187 29.9424H217.187V28.9424H216.187V29.9424ZM216.187 39V40H217.187V39H216.187ZM198.266 39V1.30469H196.266V39H198.266ZM197.266 2.30469H216.187V0.304688H197.266V2.30469ZM215.187 1.30469V10.167H217.187V1.30469H215.187ZM216.187 9.16699H207.446V11.167H216.187V9.16699ZM206.446 10.167V15.6602H208.446V10.167H206.446ZM207.446 16.6602H215.283V14.6602H207.446V16.6602ZM214.283 15.6602V24.1807H216.283V15.6602H214.283ZM215.283 23.1807H207.446V25.1807H215.283V23.1807ZM206.446 24.1807V29.9424H208.446V24.1807H206.446ZM207.446 30.9424H216.187V28.9424H207.446V30.9424ZM215.187 29.9424V39H217.187V29.9424H215.187ZM216.187 38H197.266V40H216.187V38ZM248.755 39V40H249.755V39H248.755ZM238.574 39H237.574V40H238.574V39ZM238.574 10.3379H239.574V9.33789H238.574V10.3379ZM232.959 10.3379H231.959V11.3379H232.959V10.3379ZM232.959 1.30469V0.304688H231.959V1.30469H232.959ZM254.59 1.30469H255.59V0.304688H254.59V1.30469ZM254.59 10.3379V11.3379H255.59V10.3379H254.59ZM248.755 10.3379V9.33789H247.755V10.3379H248.755ZM248.755 38H238.574V40H248.755V38ZM239.574 39V10.3379H237.574V39H239.574ZM238.574 9.33789H232.959V11.3379H238.574V9.33789ZM233.959 10.3379V1.30469H231.959V10.3379H233.959ZM232.959 2.30469H254.59V0.304688H232.959V2.30469ZM253.59 1.30469V10.3379H255.59V1.30469H253.59ZM254.59 9.33789H248.755V11.3379H254.59V9.33789ZM247.755 10.3379V39H249.755V10.3379H247.755ZM282.446 39V40H283.446V39H282.446ZM272.266 39H271.266V40H272.266V39ZM272.266 23.8389H273.266V22.8389H272.266V23.8389ZM267.407 23.8389V22.8389H266.407V23.8389H267.407ZM267.407 39V40H268.407V39H267.407ZM257.227 39H256.227V40H257.227V39ZM257.227 1.30469V0.304688H256.227V1.30469H257.227ZM267.407 1.30469H268.407V0.304688H267.407V1.30469ZM267.407 14.6348H266.407V15.6348H267.407V14.6348ZM272.266 14.6348V15.6348H273.266V14.6348H272.266ZM272.266 1.30469V0.304688H271.266V1.30469H272.266ZM282.446 1.30469H283.446V0.304688H282.446V1.30469ZM282.446 38H272.266V40H282.446V38ZM273.266 39V23.8389H271.266V39H273.266ZM272.266 22.8389H267.407V24.8389H272.266V22.8389ZM266.407 23.8389V39H268.407V23.8389H266.407ZM267.407 38H257.227V40H267.407V38ZM258.227 39V1.30469H256.227V39H258.227ZM257.227 2.30469H267.407V0.304688H257.227V2.30469ZM266.407 1.30469V14.6348H268.407V1.30469H266.407ZM267.407 15.6348H272.266V13.6348H267.407V15.6348ZM273.266 14.6348V1.30469H271.266V14.6348H273.266ZM272.266 2.30469H282.446V0.304688H272.266V2.30469ZM281.446 1.30469V39H283.446V1.30469H281.446ZM287.744 39H286.744V40H287.744V39ZM287.744 1.30469V0.304688H286.744V1.30469H287.744ZM306.665 1.30469H307.665V0.304688H306.665V1.30469ZM306.665 10.167V11.167H307.665V10.167H306.665ZM297.925 10.167V9.16699H296.925V10.167H297.925ZM297.925 15.6602H296.925V16.6602H297.925V15.6602ZM305.762 15.6602H306.762V14.6602H305.762V15.6602ZM305.762 24.1807V25.1807H306.762V24.1807H305.762ZM297.925 24.1807V23.1807H296.925V24.1807H297.925ZM297.925 29.9424H296.925V30.9424H297.925V29.9424ZM306.665 29.9424H307.665V28.9424H306.665V29.9424ZM306.665 39V40H307.665V39H306.665ZM288.744 39V1.30469H286.744V39H288.744ZM287.744 2.30469H306.665V0.304688H287.744V2.30469ZM305.665 1.30469V10.167H307.665V1.30469H305.665ZM306.665 9.16699H297.925V11.167H306.665V9.16699ZM296.925 10.167V15.6602H298.925V10.167H296.925ZM297.925 16.6602H305.762V14.6602H297.925V16.6602ZM304.762 15.6602V24.1807H306.762V15.6602H304.762ZM305.762 23.1807H297.925V25.1807H305.762V23.1807ZM296.925 24.1807V29.9424H298.925V24.1807H296.925ZM297.925 30.9424H306.665V28.9424H297.925V30.9424ZM305.665 29.9424V39H307.665V29.9424H305.665ZM306.665 38H287.744V40H306.665V38ZM12.8174 99V100H13.8174V99H12.8174ZM2.63672 99H1.63672V100H2.63672V99ZM2.63672 61.3047V60.3047H1.63672V61.3047H2.63672ZM23.4375 64.3076L24.082 63.5431L24.0818 63.5428L23.4375 64.3076ZM23.1689 84.376L23.7659 85.1783L23.771 85.1744L23.1689 84.376ZM12.8174 86.6465V85.6465H11.8174V86.6465H12.8174ZM12.8174 78.1748H11.8174V79.1236L12.7648 79.1734L12.8174 78.1748ZM13.2812 78.1992L13.2287 79.1978L13.255 79.1992H13.2812V78.1992ZM16.2354 77.0762L16.9502 77.7755L16.9577 77.7677L16.2354 77.0762ZM16.2598 70.7773L15.5026 71.4306L15.5091 71.438L16.2598 70.7773ZM12.8174 69.5322V68.5322H11.8174V69.5322H12.8174ZM12.8174 98H2.63672V100H12.8174V98ZM3.63672 99V61.3047H1.63672V99H3.63672ZM2.63672 62.3047H12.5V60.3047H2.63672V62.3047ZM12.5 62.3047C17.3091 62.3047 20.6762 63.2889 22.7932 65.0724L24.0818 63.5428C21.4462 61.3224 17.5216 60.3047 12.5 60.3047V62.3047ZM22.793 65.0722C25.3325 67.2131 26.6367 70.1937 26.6367 74.1465H28.6367C28.6367 69.7008 27.1414 66.1222 24.082 63.5431L22.793 65.0722ZM26.6367 74.1465C26.6367 78.4853 25.2377 81.5634 22.5669 83.5776L23.771 85.1744C27.0572 82.6963 28.6367 78.9548 28.6367 74.1465H26.6367ZM22.572 83.5737C20.7773 84.909 18.1003 85.6465 14.4043 85.6465V87.6465C18.3255 87.6465 21.4916 86.8703 23.7659 85.1783L22.572 83.5737ZM14.4043 85.6465H12.8174V87.6465H14.4043V85.6465ZM11.8174 86.6465V99H13.8174V86.6465H11.8174ZM12.7648 79.1734L13.2287 79.1978L13.3338 77.2006L12.8699 77.1762L12.7648 79.1734ZM13.2812 79.1992C14.7347 79.1992 15.9958 78.7511 16.9502 77.7755L15.5205 76.3769C15.0101 76.8987 14.3018 77.1992 13.2812 77.1992V79.1992ZM16.9577 77.7677C17.9094 76.7737 18.334 75.4609 18.334 73.9512H16.334C16.334 75.0781 16.0261 75.8487 15.513 76.3846L16.9577 77.7677ZM18.334 73.9512C18.334 72.4572 17.9182 71.1483 17.0105 70.1167L15.5091 71.438C16.0336 72.034 16.334 72.8409 16.334 73.9512H18.334ZM17.0169 70.1241C16.1087 69.0714 14.9198 68.5322 13.5254 68.5322V70.5322C14.3446 70.5322 14.9785 70.8231 15.5026 71.4306L17.0169 70.1241ZM13.5254 68.5322H12.8174V70.5322H13.5254V68.5322ZM11.8174 69.5322V78.1748H13.8174V69.5322H11.8174ZM54.9805 94.2881L54.1722 93.6993L54.1717 93.6999L54.9805 94.2881ZM35.2539 95.5332L34.5318 96.225L34.5341 96.2274L35.2539 95.5332ZM35.4736 64.5518L34.7621 63.8491L34.7616 63.8496L35.4736 64.5518ZM55.0537 65.9434L55.8634 65.3565L55.0537 65.9434ZM41.8457 72.8037L42.7672 73.1922L42.7708 73.1837L42.7742 73.1751L41.8457 72.8037ZM41.7725 87.5254L40.8347 87.8727L40.8387 87.8832L41.7725 87.5254ZM47.3145 87.5498L46.3848 87.1814L46.3817 87.1891L46.3789 87.1967L47.3145 87.5498ZM57.9111 80.2744C57.9111 85.8699 56.6361 90.3172 54.1722 93.6993L55.7887 94.8769C58.5657 91.065 59.9111 86.1698 59.9111 80.2744H57.9111ZM54.1717 93.6999C51.7428 97.0396 48.6415 98.6592 44.7998 98.6592V100.659C49.324 100.659 53.0098 98.698 55.7892 94.8763L54.1717 93.6999ZM44.7998 98.6592C41.3693 98.6592 38.4445 97.4008 35.9737 94.839L34.5341 96.2274C37.3693 99.1669 40.8084 100.659 44.7998 100.659V98.6592ZM35.976 94.8414C32.8836 91.6132 31.249 86.6819 31.249 79.8594H29.249C29.249 86.9692 30.9511 92.487 34.5318 96.225L35.976 94.8414ZM31.249 79.8594C31.249 73.3558 32.9436 68.5414 36.1856 65.2539L34.7616 63.8496C31.0375 67.6259 29.249 73.0166 29.249 79.8594H31.249ZM36.1851 65.2544C38.5931 62.8162 41.4081 61.6211 44.6777 61.6211V59.6211C40.851 59.6211 37.5299 61.0465 34.7621 63.8491L36.1851 65.2544ZM44.6777 61.6211C48.6997 61.6211 51.8586 63.239 54.244 66.5302L55.8634 65.3565C53.1056 61.5514 49.3471 59.6211 44.6777 59.6211V61.6211ZM54.244 66.5302C56.6535 69.8547 57.9111 74.4028 57.9111 80.2744H59.9111C59.9111 74.1343 58.5971 69.1283 55.8634 65.3565L54.244 66.5302ZM49.3398 80.3477C49.3398 76.9064 49.0395 74.2111 48.3794 72.3425C48.0478 71.4035 47.6016 70.6039 46.9937 70.0302C46.3629 69.4349 45.5927 69.1182 44.7266 69.1182V71.1182C45.0649 71.1182 45.3486 71.2277 45.621 71.4848C45.9164 71.7636 46.2231 72.2427 46.4936 73.0086C47.038 74.5498 47.3398 76.9693 47.3398 80.3477H49.3398ZM44.7266 69.1182C42.8929 69.1182 41.6822 70.5199 40.9172 72.4323L42.7742 73.1751C43.4415 71.5068 44.1513 71.1182 44.7266 71.1182V69.1182ZM40.9242 72.4153C40.1466 74.2598 39.7959 76.8605 39.7959 80.1279H41.7959C41.7959 76.9501 42.145 74.6679 42.7672 73.1922L40.9242 72.4153ZM39.7959 80.1279C39.7959 83.3499 40.1236 85.9527 40.8347 87.8727L42.7102 87.1781C42.1192 85.5824 41.7959 83.2537 41.7959 80.1279H39.7959ZM40.8387 87.8832C41.5542 89.7506 42.7227 91.1377 44.5312 91.1377V89.1377C43.9961 89.1377 43.3253 88.7832 42.7063 87.1676L40.8387 87.8832ZM44.5312 91.1377C46.3602 91.1377 47.5429 89.7769 48.2501 87.9029L46.3789 87.1967C45.784 88.7732 45.1111 89.1377 44.5312 89.1377V91.1377ZM48.2441 87.9182C48.9949 86.0235 49.3398 83.478 49.3398 80.3477H47.3398C47.3398 83.3697 47.0012 85.6256 46.3848 87.1814L48.2441 87.9182ZM95.1172 99V100H95.9348L96.0973 99.1987L95.1172 99ZM85.3027 99L84.3181 99.1747L84.4646 100H85.3027V99ZM82.959 85.792L83.9436 85.6173L83.9435 85.6164L82.959 85.792ZM81.9336 79.1514L82.9263 79.0305L82.9261 79.0295L81.9336 79.1514ZM81.4697 75.416L82.4648 75.3165L80.4771 75.295L81.4697 75.416ZM81.1035 79.1514L80.1075 79.0624L80.1073 79.064L81.1035 79.1514ZM80.3955 85.3281L79.4056 85.1867L79.4053 85.1884L80.3955 85.3281ZM78.4668 99V100H79.3356L79.457 99.1397L78.4668 99ZM68.5547 99L67.5786 99.2175L67.753 100H68.5547V99ZM60.1562 61.3047V60.3047H58.9089L59.1802 61.5222L60.1562 61.3047ZM70.2148 61.3047L71.2023 61.1467L71.0676 60.3047H70.2148V61.3047ZM71.875 71.6807L72.8634 71.5289L72.8624 71.5227L71.875 71.6807ZM73.1934 81.4219L74.1885 81.3231L74.188 81.319L73.1934 81.4219ZM73.5352 84.8643L72.54 84.9631L74.5294 84.9711L73.5352 84.8643ZM73.8525 81.9102L74.8468 82.017L74.8477 82.0087L73.8525 81.9102ZM75.1709 72.0713L74.1862 71.8971L74.1855 71.901L75.1709 72.0713ZM77.0752 61.3047V60.3047H76.2365L76.0905 61.1305L77.0752 61.3047ZM85.8398 61.3047L86.8225 61.1193L86.6688 60.3047H85.8398V61.3047ZM87.5488 70.3623L86.5662 70.5477L86.567 70.5519L87.5488 70.3623ZM89.6729 85.3281L88.6783 85.4321L90.6705 85.3971L89.6729 85.3281ZM90.9668 72.999L91.9542 73.157L91.9544 73.1557L90.9668 72.999ZM92.8223 61.3047V60.3047H91.9684L91.8346 61.148L92.8223 61.3047ZM102.759 61.3047L103.739 61.5034L103.982 60.3047H102.759V61.3047ZM95.1172 98H85.3027V100H95.1172V98ZM86.2874 98.8253L83.9436 85.6173L81.9744 85.9667L84.3181 99.1747L86.2874 98.8253ZM83.9435 85.6164C83.4899 83.073 83.1512 80.8786 82.9263 79.0305L80.9409 79.2722C81.1717 81.1676 81.5167 83.4003 81.9745 85.9676L83.9435 85.6164ZM82.9261 79.0295C82.812 78.1001 82.714 77.3239 82.6321 76.7016L80.6492 76.9625C80.73 77.5771 80.8273 78.3471 80.941 79.2733L82.9261 79.0295ZM82.6321 76.7016C82.5511 76.086 82.4957 75.6263 82.4648 75.3165L80.4747 75.5155C80.5088 75.8568 80.5674 76.3411 80.6492 76.9625L82.6321 76.7016ZM80.4771 75.295C80.3935 75.9806 80.2701 77.241 80.1075 79.0624L82.0996 79.2403C82.2625 77.4159 82.3832 76.1861 82.4624 75.5371L80.4771 75.295ZM80.1073 79.064C80.0267 79.9833 79.9298 80.9521 79.8167 81.9706L81.8044 82.1915C81.9191 81.1592 82.0176 80.1749 82.0997 79.2388L80.1073 79.064ZM79.8167 81.9706C79.704 82.9846 79.567 84.0565 79.4056 85.1867L81.3855 85.4695C81.5495 84.3211 81.6892 83.2283 81.8044 82.1915L79.8167 81.9706ZM79.4053 85.1884L77.4766 98.8603L79.457 99.1397L81.3857 85.4678L79.4053 85.1884ZM78.4668 98H68.5547V100H78.4668V98ZM69.5308 98.7825L61.1323 61.0872L59.1802 61.5222L67.5786 99.2175L69.5308 98.7825ZM60.1562 62.3047H70.2148V60.3047H60.1562V62.3047ZM69.2274 61.4627L70.8876 71.8387L72.8624 71.5227L71.2023 61.1467L69.2274 61.4627ZM70.8866 71.8324C71.5204 75.9605 71.957 79.1889 72.1987 81.5248L74.188 81.319C73.9414 78.9348 73.4991 75.669 72.8634 71.5289L70.8866 71.8324ZM72.1982 81.5207L72.54 84.9631L74.5303 84.7654L74.1885 81.3231L72.1982 81.5207ZM74.5294 84.9711L74.8468 82.017L72.8583 81.8033L72.5409 84.7574L74.5294 84.9711ZM74.8477 82.0087C75.1873 78.5799 75.6237 75.3243 76.1563 72.2415L74.1855 71.901C73.6439 75.0357 73.2014 78.3394 72.8574 81.8116L74.8477 82.0087ZM76.1556 72.2455L78.0599 61.4789L76.0905 61.1305L74.1862 71.8971L76.1556 72.2455ZM77.0752 62.3047H85.8398V60.3047H77.0752V62.3047ZM84.8572 61.4901L86.5662 70.5477L88.5315 70.1769L86.8225 61.1193L84.8572 61.4901ZM86.567 70.5519C87.3738 74.7312 88.0781 79.6899 88.6783 85.4321L90.6674 85.2242C90.0632 79.4429 89.3515 74.4244 88.5307 70.1728L86.567 70.5519ZM90.6705 85.3971C90.8489 82.8181 91.0432 80.5356 91.2533 78.5485L89.2643 78.3383C89.0512 80.3551 88.8549 82.6624 88.6752 85.2591L90.6705 85.3971ZM91.2533 78.5485C91.4634 76.5605 91.6972 74.7637 91.9542 73.157L89.9794 72.841C89.7156 74.4895 89.4774 76.3223 89.2643 78.3383L91.2533 78.5485ZM91.9544 73.1557L93.8099 61.4614L91.8346 61.148L89.9791 72.8423L91.9544 73.1557ZM92.8223 62.3047H102.759V60.3047H92.8223V62.3047ZM101.779 61.106L94.1371 98.8013L96.0973 99.1987L103.739 61.5034L101.779 61.106ZM105.42 99H104.42V100H105.42V99ZM105.42 61.3047V60.3047H104.42V61.3047H105.42ZM124.341 61.3047H125.341V60.3047H124.341V61.3047ZM124.341 70.167V71.167H125.341V70.167H124.341ZM115.601 70.167V69.167H114.601V70.167H115.601ZM115.601 75.6602H114.601V76.6602H115.601V75.6602ZM123.438 75.6602H124.438V74.6602H123.438V75.6602ZM123.438 84.1807V85.1807H124.438V84.1807H123.438ZM115.601 84.1807V83.1807H114.601V84.1807H115.601ZM115.601 89.9424H114.601V90.9424H115.601V89.9424ZM124.341 89.9424H125.341V88.9424H124.341V89.9424ZM124.341 99V100H125.341V99H124.341ZM106.42 99V61.3047H104.42V99H106.42ZM105.42 62.3047H124.341V60.3047H105.42V62.3047ZM123.341 61.3047V70.167H125.341V61.3047H123.341ZM124.341 69.167H115.601V71.167H124.341V69.167ZM114.601 70.167V75.6602H116.601V70.167H114.601ZM115.601 76.6602H123.438V74.6602H115.601V76.6602ZM122.438 75.6602V84.1807H124.438V75.6602H122.438ZM123.438 83.1807H115.601V85.1807H123.438V83.1807ZM114.601 84.1807V89.9424H116.601V84.1807H114.601ZM115.601 90.9424H124.341V88.9424H115.601V90.9424ZM123.341 89.9424V99H125.341V89.9424H123.341ZM124.341 98H105.42V100H124.341V98ZM155.518 99V100H157.111L156.418 98.5652L155.518 99ZM144.507 99L143.57 99.3508L143.814 100H144.507V99ZM139.478 85.5723L138.5 85.7818L138.515 85.8539L138.541 85.923L139.478 85.5723ZM139.209 84.6689L138.252 84.9601L138.258 84.9789L138.264 84.9975L139.209 84.6689ZM138.77 83.3262L139.715 83.0011L137.77 83.3556L138.77 83.3262ZM138.843 85.8164H139.843V85.8017L139.842 85.787L138.843 85.8164ZM138.843 99V100H139.843V99H138.843ZM128.711 99H127.711V100H128.711V99ZM128.711 61.3047V60.3047H127.711V61.3047H128.711ZM149.438 64.0146L150.062 63.2329L150.06 63.2311L149.438 64.0146ZM147.949 83.3262L147.541 82.4135L146.601 82.8341L147.049 83.761L147.949 83.3262ZM138.892 78.7607H137.892V79.7607H138.892V78.7607ZM138.892 69.7764V68.7764H137.892V69.7764H138.892ZM155.518 98H144.507V100H155.518V98ZM145.443 98.6492L140.414 85.2215L138.541 85.923L143.57 99.3508L145.443 98.6492ZM140.455 85.3627C140.394 85.0763 140.289 84.7308 140.153 84.3404L138.264 84.9975C138.389 85.3558 138.463 85.6125 138.5 85.7818L140.455 85.3627ZM140.166 84.3778C140.047 83.9885 139.897 83.529 139.715 83.0011L137.824 83.6513C138 84.165 138.143 84.6007 138.252 84.9601L140.166 84.3778ZM137.77 83.3556L137.843 85.8458L139.842 85.787L139.769 83.2968L137.77 83.3556ZM137.843 85.8164V99H139.843V85.8164H137.843ZM138.843 98H128.711V100H138.843V98ZM129.711 99V61.3047H127.711V99H129.711ZM128.711 62.3047H139.136V60.3047H128.711V62.3047ZM139.136 62.3047C143.622 62.3047 146.792 63.1924 148.817 64.7982L150.06 63.2311C147.528 61.2236 143.829 60.3047 139.136 60.3047V62.3047ZM148.815 64.7964C151.437 66.8878 152.784 69.8662 152.784 73.8779H154.784C154.784 69.361 153.235 65.7639 150.062 63.2329L148.815 64.7964ZM152.784 73.8779C152.784 76.0138 152.329 77.7486 151.475 79.1325C150.623 80.512 149.331 81.6118 147.541 82.4135L148.358 84.2389C150.457 83.299 152.083 81.9534 153.176 80.1834C154.267 78.4179 154.784 76.2993 154.784 73.8779H152.784ZM147.049 83.761L154.617 99.4348L156.418 98.5652L148.85 82.8913L147.049 83.761ZM138.892 79.7607H139.575V77.7607H138.892V79.7607ZM139.575 79.7607C141.04 79.7607 142.29 79.1848 143.258 78.0755L141.751 76.7604C141.157 77.4415 140.454 77.7607 139.575 77.7607V79.7607ZM143.258 78.0755C144.224 76.9688 144.677 75.5832 144.677 74H142.677C142.677 75.1838 142.348 76.0768 141.751 76.7604L143.258 78.0755ZM144.677 74C144.677 72.4262 144.263 71.065 143.263 70.1094C142.272 69.1618 140.874 68.7764 139.258 68.7764V70.7764C140.588 70.7764 141.399 71.0949 141.881 71.5552C142.354 72.0074 142.677 72.7581 142.677 74H144.677ZM139.258 68.7764H138.892V70.7764H139.258V68.7764ZM137.892 69.7764V78.7607H139.892V69.7764H137.892ZM187.085 99V100H188.085V99H187.085ZM176.904 99H175.904V100H176.904V99ZM176.904 70.3379H177.904V69.3379H176.904V70.3379ZM171.289 70.3379H170.289V71.3379H171.289V70.3379ZM171.289 61.3047V60.3047H170.289V61.3047H171.289ZM192.92 61.3047H193.92V60.3047H192.92V61.3047ZM192.92 70.3379V71.3379H193.92V70.3379H192.92ZM187.085 70.3379V69.3379H186.085V70.3379H187.085ZM187.085 98H176.904V100H187.085V98ZM177.904 99V70.3379H175.904V99H177.904ZM176.904 69.3379H171.289V71.3379H176.904V69.3379ZM172.289 70.3379V61.3047H170.289V70.3379H172.289ZM171.289 62.3047H192.92V60.3047H171.289V62.3047ZM191.92 61.3047V70.3379H193.92V61.3047H191.92ZM192.92 69.3379H187.085V71.3379H192.92V69.3379ZM186.085 70.3379V99H188.085V70.3379H186.085ZM219.58 94.2881L218.772 93.6993L218.771 93.6999L219.58 94.2881ZM199.854 95.5332L199.131 96.225L199.134 96.2274L199.854 95.5332ZM200.073 64.5518L199.362 63.8491L199.361 63.8496L200.073 64.5518ZM219.653 65.9434L220.463 65.3565L219.653 65.9434ZM206.445 72.8037L207.367 73.1922L207.37 73.1837L207.374 73.1751L206.445 72.8037ZM206.372 87.5254L205.434 87.8727L205.438 87.8832L206.372 87.5254ZM211.914 87.5498L210.984 87.1814L210.981 87.1891L210.978 87.1967L211.914 87.5498ZM222.511 80.2744C222.511 85.8699 221.236 90.3172 218.772 93.6993L220.388 94.8769C223.165 91.065 224.511 86.1698 224.511 80.2744H222.511ZM218.771 93.6999C216.342 97.0396 213.241 98.6592 209.399 98.6592V100.659C213.924 100.659 217.609 98.698 220.389 94.8763L218.771 93.6999ZM209.399 98.6592C205.969 98.6592 203.044 97.4008 200.573 94.839L199.134 96.2274C201.969 99.1669 205.408 100.659 209.399 100.659V98.6592ZM200.576 94.8414C197.483 91.6132 195.849 86.6819 195.849 79.8594H193.849C193.849 86.9692 195.551 92.487 199.131 96.225L200.576 94.8414ZM195.849 79.8594C195.849 73.3558 197.543 68.5414 200.785 65.2539L199.361 63.8496C195.637 67.6259 193.849 73.0166 193.849 79.8594H195.849ZM200.785 65.2544C203.193 62.8162 206.008 61.6211 209.277 61.6211V59.6211C205.451 59.6211 202.13 61.0465 199.362 63.8491L200.785 65.2544ZM209.277 61.6211C213.299 61.6211 216.458 63.239 218.844 66.5302L220.463 65.3565C217.705 61.5514 213.947 59.6211 209.277 59.6211V61.6211ZM218.844 66.5302C221.253 69.8547 222.511 74.4028 222.511 80.2744H224.511C224.511 74.1343 223.197 69.1283 220.463 65.3565L218.844 66.5302ZM213.939 80.3477C213.939 76.9064 213.639 74.2111 212.979 72.3425C212.647 71.4035 212.201 70.6039 211.593 70.0302C210.962 69.4349 210.192 69.1182 209.326 69.1182V71.1182C209.664 71.1182 209.948 71.2277 210.221 71.4848C210.516 71.7636 210.823 72.2427 211.093 73.0086C211.638 74.5498 211.939 76.9693 211.939 80.3477H213.939ZM209.326 69.1182C207.493 69.1182 206.282 70.5199 205.517 72.4323L207.374 73.1751C208.041 71.5068 208.751 71.1182 209.326 71.1182V69.1182ZM205.524 72.4153C204.746 74.2598 204.396 76.8605 204.396 80.1279H206.396C206.396 76.9501 206.745 74.6679 207.367 73.1922L205.524 72.4153ZM204.396 80.1279C204.396 83.3499 204.723 85.9527 205.434 87.8727L207.31 87.1781C206.719 85.5824 206.396 83.2537 206.396 80.1279H204.396ZM205.438 87.8832C206.154 89.7506 207.322 91.1377 209.131 91.1377V89.1377C208.596 89.1377 207.925 88.7832 207.306 87.1676L205.438 87.8832ZM209.131 91.1377C210.96 91.1377 212.142 89.7769 212.85 87.9029L210.978 87.1967C210.384 88.7732 209.711 89.1377 209.131 89.1377V91.1377ZM212.844 87.9182C213.594 86.0235 213.939 83.478 213.939 80.3477H211.939C211.939 83.3697 211.601 85.6256 210.984 87.1814L212.844 87.9182Z" fill="white" mask="url(#path-1-outside-1_1_304)"/>
</svg>
